<?xml version="1.0" encoding="utf-8"?>
<!-- Generator: Adobe Illustrator 27.3.1, SVG Export Plug-In . SVG Version: 6.00 Build 0)  -->
<svg version="1.1" id="Layer_1" xmlns="http://www.w3.org/2000/svg" xmlns:xlink="http://www.w3.org/1999/xlink" x="0px" y="0px"
	 viewBox="0 0 1080 1080" style="enable-background:new 0 0 1080 1080;" xml:space="preserve">
<style type="text/css">
	.st0{fill:none;stroke:url(#SVGID_1_);stroke-miterlimit:10;}
	.st1{opacity:0.9412;fill:none;stroke:url(#SVGID_00000145058340536295211780000012531501544905153180_);stroke-miterlimit:10;}
	.st2{opacity:0.8824;fill:none;stroke:url(#SVGID_00000038371556607203892190000009509660971559578791_);stroke-miterlimit:10;}
	.st3{opacity:0.8235;fill:none;stroke:url(#SVGID_00000055703590946718848210000017577354249782508185_);stroke-miterlimit:10;}
	.st4{opacity:0.7647;fill:none;stroke:url(#SVGID_00000074400753725272859590000001534134227479090091_);stroke-miterlimit:10;}
	.st5{opacity:0.7059;fill:none;stroke:url(#SVGID_00000124145834501023173900000005582902809740520092_);stroke-miterlimit:10;}
	.st6{opacity:0.6471;fill:none;stroke:url(#SVGID_00000168079662040079632180000006649510027561746344_);stroke-miterlimit:10;}
	.st7{opacity:0.5882;fill:none;stroke:url(#SVGID_00000117655573366810405090000012470465786129407388_);stroke-miterlimit:10;}
	.st8{opacity:0.5294;fill:none;stroke:url(#SVGID_00000142883101107074547310000017416767225546377611_);stroke-miterlimit:10;}
	.st9{opacity:0.4706;fill:none;stroke:url(#SVGID_00000138537534717182117260000014159142133132301961_);stroke-miterlimit:10;}
	.st10{opacity:0.4118;fill:none;stroke:url(#SVGID_00000074413671262886290320000014843023769223408292_);stroke-miterlimit:10;}
	.st11{opacity:0.3529;fill:none;stroke:url(#SVGID_00000046337932387867880480000003357939883484773253_);stroke-miterlimit:10;}
	.st12{opacity:0.2941;fill:none;stroke:url(#SVGID_00000121255119180716754060000011553360979241486995_);stroke-miterlimit:10;}
	.st13{opacity:0.2353;fill:none;stroke:url(#SVGID_00000168798498558300868720000012211961307098603162_);stroke-miterlimit:10;}
	.st14{opacity:0.1765;fill:none;stroke:url(#SVGID_00000096762013376448756840000011208304127659883136_);stroke-miterlimit:10;}
	.st15{opacity:0.1176;fill:none;stroke:url(#SVGID_00000128471569478904517210000011392791949049589645_);stroke-miterlimit:10;}
	.st16{opacity:0.0588;fill:none;stroke:url(#SVGID_00000116939087672358493760000004359182025678772614_);stroke-miterlimit:10;}
	.st17{opacity:0;fill:none;stroke:#FFFFFF;stroke-miterlimit:10;}
</style>
<g>
	
		<linearGradient id="SVGID_1_" gradientUnits="userSpaceOnUse" x1="-2405.5476" y1="-3436.8088" x2="-1489.083" y2="-3436.8088" gradientTransform="matrix(-0.5327 -0.8463 0.8463 -0.5327 2447.2415 -2930.1409)">
		<stop  offset="0" style="stop-color:#FFFFFF"/>
		<stop  offset="0.0751" style="stop-color:#D1D1D1;stop-opacity:0.9249"/>
		<stop  offset="0.1659" style="stop-color:#A0A0A0;stop-opacity:0.8341"/>
		<stop  offset="0.2619" style="stop-color:#757575;stop-opacity:0.7381"/>
		<stop  offset="0.3612" style="stop-color:#515151;stop-opacity:0.6388"/>
		<stop  offset="0.4648" style="stop-color:#343434;stop-opacity:0.5352"/>
		<stop  offset="0.5742" style="stop-color:#1D1D1D;stop-opacity:0.4258"/>
		<stop  offset="0.6919" style="stop-color:#0D0D0D;stop-opacity:0.3081"/>
		<stop  offset="0.824" style="stop-color:#030303;stop-opacity:0.176"/>
		<stop  offset="1" style="stop-color:#000000;stop-opacity:0"/>
	</linearGradient>
	<path class="st0" d="M960.54,573.75c4.96,32.4,6.94,68.37-12.14,95.03c-13.42,18.75-34.98,29.52-53.91,42.7
		c-109.35,76.1-131.99,233.08-231.43,321.74c-8.48,7.56-19.27,15.01-30.31,12.32c-6.77-1.65-12.05-6.83-16.68-12.03
		c-36.09-40.53-54.62-94.74-92.69-133.43c-71.62-72.79-190.37-71.54-275.73-127.6c-27.84-18.28-51.61-42.46-70.82-69.67
		c-16.41-23.25-29.81-49.51-32.82-77.81c-2.34-21.97,1.68-44.09,2.07-66.18c0.63-35.33-7.99-70.32-7.59-105.65
		c0.33-29.58,6.98-58.68,13.59-87.51c3.3-14.39,6.72-29.09,14.58-41.59c24.94-39.66,80.98-41.55,122.87-62.53
		c56.29-28.19,85.19-90.38,126.52-137.87c29.59-34,66.83-61.31,108.15-79.31c15.03-6.55,31.26-11.96,47.54-10.08
		c15.46,1.79,29.35,9.95,42.71,17.93c30.97,18.48,61.94,36.97,92.91,55.45c43.37,25.88,86.9,51.88,126.21,83.58
		c61.14,49.31,74.03,105.29,81.44,179.83C921.91,440.36,949.99,504.9,960.54,573.75z"/>
	
		<linearGradient id="SVGID_00000063617484902002642790000009287424799282566812_" gradientUnits="userSpaceOnUse" x1="-2752.1025" y1="-3425.5093" x2="-1738.5784" y2="-3425.5093" gradientTransform="matrix(-0.4425 -0.7965 0.7965 -0.4425 2303.2859 -2757.7795)">
		<stop  offset="0" style="stop-color:#FFFFFF"/>
		<stop  offset="0.0528" style="stop-color:#E0E0E0;stop-opacity:0.9503"/>
		<stop  offset="0.1459" style="stop-color:#AFAFAF;stop-opacity:0.8627"/>
		<stop  offset="0.2441" style="stop-color:#848484;stop-opacity:0.7702"/>
		<stop  offset="0.3458" style="stop-color:#606060;stop-opacity:0.6745"/>
		<stop  offset="0.4519" style="stop-color:#434343;stop-opacity:0.5747"/>
		<stop  offset="0.564" style="stop-color:#2C2C2C;stop-opacity:0.4692"/>
		<stop  offset="0.6845" style="stop-color:#1C1C1C;stop-opacity:0.3558"/>
		<stop  offset="0.8197" style="stop-color:#121212;stop-opacity:0.2285"/>
		<stop  offset="1" style="stop-color:#0F0F0F;stop-opacity:0.0588"/>
	</linearGradient>
	
		<path style="opacity:0.9412;fill:none;stroke:url(#SVGID_00000063617484902002642790000009287424799282566812_);stroke-miterlimit:10;" d="
		M280.74,265.14c55.38-29.09,85.19-90.23,126.99-137.03c23.5-26.3,51.49-48.62,82.35-65.77c8.46-4.71,17.14-9.03,26-12.93
		c14.97-6.6,31.09-12.1,47.28-10.68c15.37,1.35,29.25,8.82,42.73,16.05c31.62,16.95,63.5,34.27,95.27,52.05
		c20.78,11.63,41.58,23.41,61.96,35.77c11.27,6.83,22.46,13.86,33.25,21.5c11.44,8.11,22.32,16.86,33.13,25.79
		c41.58,34.3,62.3,70.41,73.16,114.71c4.73,19.24,7.53,39.93,9.81,62.2c0.33,3.23,0.7,6.44,1.12,9.65
		c4.68,36.35,14.53,71.55,24.05,106.88c7.52,27.92,14.92,55.92,18.95,84.67c3,21.4,4.29,44.17-0.08,65.06
		c-2.41,11.52-6.57,22.48-13.28,32.31c-13.26,19.47-34.18,31.53-53.07,45.45c-48.66,35.86-81.08,86.95-111.53,139.79
		c-23.19,40.19-45.31,81.13-72.57,117.94c-14.62,19.76-30.71,38.32-49.39,54.54c-8.46,7.35-19.11,14.62-29.99,12.24
		c-6.6-1.44-11.8-6.26-16.39-11.08c-35.77-37.58-55.12-88.46-92.82-125.11c-70.93-68.96-186.38-69.09-268.52-125.18
		c-27.75-18.95-50.92-44.15-70.36-71.7c-4.61-6.53-9.03-13.27-13.12-20.17c-10.63-17.95-19.06-37.15-21.92-57.54
		c-1.5-10.58-1.48-21.25-0.85-32.04c0.68-11.6,2.1-23.19,2.39-34.8c0.86-34.45-7.47-68.62-7.32-103.1
		c0.13-28.85,6.14-57.26,12.2-85.39c3.02-14.06,6.18-28.41,13.55-40.67C187.09,289.63,240.18,286.45,280.74,265.14z"/>
	
		<linearGradient id="SVGID_00000137115349973233966590000015485385714996686221_" gradientUnits="userSpaceOnUse" x1="-3165.2107" y1="-3369.2585" x2="-2037.3247" y2="-3369.2585" gradientTransform="matrix(-0.3524 -0.7468 0.7468 -0.3524 2159.3306 -2585.4185)">
		<stop  offset="0" style="stop-color:#FFFFFF"/>
		<stop  offset="0.0285" style="stop-color:#EFEFEF;stop-opacity:0.9748"/>
		<stop  offset="0.124" style="stop-color:#BEBEBE;stop-opacity:0.8906"/>
		<stop  offset="0.2247" style="stop-color:#939393;stop-opacity:0.8017"/>
		<stop  offset="0.329" style="stop-color:#6F6F6F;stop-opacity:0.7097"/>
		<stop  offset="0.4379" style="stop-color:#525252;stop-opacity:0.6136"/>
		<stop  offset="0.5528" style="stop-color:#3B3B3B;stop-opacity:0.5123"/>
		<stop  offset="0.6764" style="stop-color:#2B2B2B;stop-opacity:0.4031"/>
		<stop  offset="0.8151" style="stop-color:#212121;stop-opacity:0.2808"/>
		<stop  offset="1" style="stop-color:#1E1E1E;stop-opacity:0.1176"/>
	</linearGradient>
	
		<path style="opacity:0.8824;fill:none;stroke:url(#SVGID_00000137115349973233966590000015485385714996686221_);stroke-miterlimit:10;" d="
		M271.95,268.74c54.48-30.01,85.18-90.08,127.47-136.19c23.77-25.92,51.83-48,82.62-65.13c8.45-4.7,17.1-9.04,25.93-12.97
		c14.92-6.65,30.92-12.24,47.02-11.28c15.29,0.91,29.16,7.68,42.75,14.17c32.3,15.42,65.05,31.57,97.62,48.64
		c21.28,11.17,42.58,22.6,63.46,34.6c11.55,6.63,23.06,13.47,33.96,21.26c11.57,8.27,22.21,17.51,33.07,26.67
		c40.52,34.18,62.78,68.76,74.28,112.44c5.03,19.01,7.9,39.54,10.21,61.56c0.34,3.2,0.71,6.39,1.13,9.57
		c4.68,36.04,14.21,71.01,23.42,106.09c7.28,27.73,14.53,55.54,18.16,84.08c2.79,21.94,3.43,45.13-1.22,66.52
		c-2.55,11.77-6.76,23.01-13.37,33.19c-13.09,20.19-33.38,33.52-52.23,48.21c-46.92,36.56-79.73,86.5-111.06,137.32
		c-23.89,38.67-47.04,77.37-74.8,112.74c-14.87,18.98-31.06,36.99-49.7,52.74c-8.45,7.14-18.95,14.23-29.68,12.17
		c-6.43-1.23-11.54-5.69-16.09-10.13c-35.44-34.63-55.62-82.17-92.95-116.79c-70.23-65.13-182.35-66.72-261.31-122.76
		c-27.66-19.63-50.22-45.84-69.9-73.73c-4.67-6.62-9.18-13.4-13.44-20.32c-11.01-17.94-20.28-36.96-23.82-57.3
		c-1.88-10.59-2.18-21.32-1.63-32.28c0.6-11.75,2.26-23.47,2.63-35.21c1.08-33.58-6.95-66.92-7.04-100.56
		c-0.07-28.13,5.31-55.83,10.81-83.28c2.74-13.73,5.63-27.72,12.51-39.76C182.57,294.85,232.71,290.35,271.95,268.74z"/>
	
		<linearGradient id="SVGID_00000155846418449251049010000012313152437335443840_" gradientUnits="userSpaceOnUse" x1="-3650.9919" y1="-3238.3547" x2="-2389.9851" y2="-3238.3547" gradientTransform="matrix(-0.2622 -0.697 0.697 -0.2622 2015.3752 -2413.0571)">
		<stop  offset="0" style="stop-color:#FFFFFF"/>
		<stop  offset="3.684342e-03" style="stop-color:#FDFDFD;stop-opacity:0.997"/>
		<stop  offset="0.1018" style="stop-color:#CDCDCD;stop-opacity:0.9161"/>
		<stop  offset="0.2037" style="stop-color:#A2A2A2;stop-opacity:0.8322"/>
		<stop  offset="0.3108" style="stop-color:#7E7E7E;stop-opacity:0.744"/>
		<stop  offset="0.4226" style="stop-color:#616161;stop-opacity:0.652"/>
		<stop  offset="0.5406" style="stop-color:#4A4A4A;stop-opacity:0.5548"/>
		<stop  offset="0.6676" style="stop-color:#3A3A3A;stop-opacity:0.4502"/>
		<stop  offset="0.8101" style="stop-color:#303030;stop-opacity:0.3329"/>
		<stop  offset="1" style="stop-color:#2D2D2D;stop-opacity:0.1765"/>
	</linearGradient>
	
		<path style="opacity:0.8235;fill:none;stroke:url(#SVGID_00000155846418449251049010000012313152437335443840_);stroke-miterlimit:10;" d="
		M263.15,272.34c53.58-30.95,85.17-89.93,127.94-135.36c24.04-25.53,52.17-47.37,82.89-64.48c8.43-4.69,17.05-9.04,25.85-13.01
		c14.86-6.7,30.76-12.38,46.76-11.88c15.2,0.47,29.08,6.54,42.77,12.29c32.99,13.87,66.6,28.86,99.97,45.23
		c21.78,10.7,43.58,21.8,64.95,33.43c11.83,6.43,23.65,13.08,34.67,21.02c11.69,8.43,22.12,18.15,33.01,27.54
		c39.48,34.05,63.25,67.12,75.39,110.18c5.34,18.78,8.26,39.16,10.61,60.92c0.34,3.17,0.72,6.33,1.14,9.49
		c4.68,35.74,13.89,70.46,22.8,105.31c7.04,27.54,14.13,55.17,17.37,83.48c2.57,22.49,2.56,46.09-2.35,67.99
		c-2.69,12.02-6.94,23.55-13.46,34.07c-12.93,20.91-32.58,35.48-51.39,50.96c-45.21,37.2-78.39,86.05-110.59,134.85
		c-24.6,37.15-48.77,73.61-77.03,107.54c-15.12,18.2-31.41,35.65-50,50.95c-8.43,6.93-18.79,13.83-29.36,12.09
		c-6.26-1.03-11.29-5.12-15.79-9.18c-35.12-31.67-56.12-75.89-93.08-108.47c-69.53-61.3-178.3-64.43-254.1-120.34
		c-27.57-20.33-49.53-47.52-69.43-75.76c-4.73-6.7-9.34-13.54-13.75-20.46c-11.4-17.94-21.45-36.79-25.72-57.06
		c-2.23-10.61-2.88-21.4-2.4-32.52c0.52-11.9,2.41-23.74,2.88-35.63c1.29-32.7-6.43-65.22-6.77-98.01
		c-0.27-27.4,4.48-54.41,9.42-81.16c2.46-13.39,5.08-27.03,11.47-38.84C178.06,300.06,225.24,294.24,263.15,272.34z"/>
	
		<linearGradient id="SVGID_00000084505724530908989960000011350662722800617866_" gradientUnits="userSpaceOnUse" x1="-4202.4829" y1="-2987.5669" x2="-2793.031" y2="-2987.5669" gradientTransform="matrix(-0.172 -0.6472 0.6472 -0.172 1871.4199 -2240.696)">
		<stop  offset="0" style="stop-color:#FFFFFF"/>
		<stop  offset="0.076" style="stop-color:#DBDBDB;stop-opacity:0.9419"/>
		<stop  offset="0.1803" style="stop-color:#B1B1B1;stop-opacity:0.8621"/>
		<stop  offset="0.2906" style="stop-color:#8D8D8D;stop-opacity:0.7778"/>
		<stop  offset="0.4057" style="stop-color:#707070;stop-opacity:0.6898"/>
		<stop  offset="0.5271" style="stop-color:#595959;stop-opacity:0.5969"/>
		<stop  offset="0.6578" style="stop-color:#494949;stop-opacity:0.497"/>
		<stop  offset="0.8045" style="stop-color:#3F3F3F;stop-opacity:0.3848"/>
		<stop  offset="1" style="stop-color:#3C3C3C;stop-opacity:0.2353"/>
	</linearGradient>
	
		<path style="opacity:0.7647;fill:none;stroke:url(#SVGID_00000084505724530908989960000011350662722800617866_);stroke-miterlimit:10;" d="
		M254.36,275.94c52.67-31.92,85.16-89.77,128.41-134.52c24.31-25.15,52.51-46.75,83.16-63.83c8.41-4.69,17.01-9.05,25.78-13.05
		c14.81-6.75,30.59-12.52,46.5-12.49c15.11,0.03,29.01,5.39,42.78,10.41c33.72,12.3,68.16,26.16,102.33,41.82
		c22.29,10.24,44.58,20.99,66.44,32.26c12.11,6.23,24.24,12.69,35.38,20.78c11.81,8.58,22.02,18.79,32.94,28.42
		c38.44,33.9,63.73,65.47,76.51,107.91c5.64,18.55,8.63,38.77,11.01,60.28c0.35,3.14,0.73,6.28,1.14,9.4
		c4.68,35.43,13.56,69.92,22.17,104.52c6.81,27.35,13.71,54.79,16.58,82.88c2.35,23.03,1.7,47.06-3.48,69.45
		c-2.83,12.27-7.12,24.08-13.55,34.95c-12.76,21.63-31.79,37.43-50.55,53.71c-43.53,37.78-77.05,85.6-110.12,132.38
		c-25.3,35.64-50.49,69.85-79.27,102.35c-15.38,17.42-31.75,34.32-50.31,49.15c-8.41,6.72-18.63,13.44-29.05,12.02
		c-6.09-0.83-11.03-4.55-15.5-8.24c-34.79-28.72-56.62-69.61-93.21-100.15c-68.83-57.46-174.2-62.21-246.9-117.92
		c-27.47-21.05-48.84-49.21-68.97-77.78c-4.78-6.79-9.5-13.68-14.07-20.61c-11.79-17.93-22.66-36.6-27.62-56.82
		c-2.61-10.62-3.58-21.47-3.18-32.76c0.44-12.05,2.56-24.01,3.12-36.04c1.48-31.83-5.92-63.52-6.5-95.47
		c-0.47-26.68,3.64-52.99,8.03-79.05c2.18-13.06,4.54-26.35,10.43-37.93C173.54,305.28,217.76,298.12,254.36,275.94z"/>
	
		<linearGradient id="SVGID_00000080176877828889035560000007346572375616036789_" gradientUnits="userSpaceOnUse" x1="-4780.8062" y1="-2545.3665" x2="-3220.2332" y2="-2545.3665" gradientTransform="matrix(-0.0819 -0.5974 0.5974 -0.0819 1727.4645 -2068.3347)">
		<stop  offset="0" style="stop-color:#FFFFFF"/>
		<stop  offset="0.0466" style="stop-color:#EAEAEA;stop-opacity:0.9671"/>
		<stop  offset="0.1544" style="stop-color:#C0C0C0;stop-opacity:0.891"/>
		<stop  offset="0.2681" style="stop-color:#9C9C9C;stop-opacity:0.8108"/>
		<stop  offset="0.3868" style="stop-color:#7F7F7F;stop-opacity:0.727"/>
		<stop  offset="0.5121" style="stop-color:#686868;stop-opacity:0.6385"/>
		<stop  offset="0.647" style="stop-color:#585858;stop-opacity:0.5433"/>
		<stop  offset="0.7982" style="stop-color:#4E4E4E;stop-opacity:0.4365"/>
		<stop  offset="1" style="stop-color:#4B4B4B;stop-opacity:0.2941"/>
	</linearGradient>
	
		<path style="opacity:0.7059;fill:none;stroke:url(#SVGID_00000080176877828889035560000007346572375616036789_);stroke-miterlimit:10;" d="
		M245.56,279.54c51.75-32.9,85.16-89.62,128.89-133.68c24.59-24.77,52.85-46.12,83.43-63.19c8.4-4.68,16.97-9.06,25.7-13.09
		c14.75-6.8,30.42-12.66,46.24-13.09c15.03-0.41,28.95,4.23,42.8,8.53c34.46,10.72,69.71,23.46,104.68,38.41
		c22.79,9.77,45.58,20.18,67.93,31.09c12.38,6.04,24.84,12.3,36.09,20.54c11.93,8.74,21.92,19.43,32.88,29.3
		c37.41,33.73,64.2,63.83,77.63,105.64c5.94,18.32,8.99,38.39,11.41,59.63c0.36,3.12,0.74,6.22,1.15,9.32
		c4.68,35.12,13.24,69.38,21.55,103.73c6.57,27.16,13.28,54.42,15.79,82.29c2.12,23.58,0.83,48.02-4.61,70.91
		c-2.97,12.52-7.3,24.61-13.64,35.83c-12.6,22.35-31.01,39.36-49.71,56.46c-41.87,38.31-75.71,85.15-109.65,129.91
		c-26.01,34.12-52.22,66.09-81.5,97.15c-15.63,16.65-32.1,32.99-50.62,47.35c-8.4,6.51-18.46,13.04-28.74,11.94
		c-5.92-0.63-10.78-3.98-15.2-7.29c-34.46-25.77-57.12-63.32-93.34-91.83c-68.13-53.63-170.06-60.06-239.69-115.5
		c-27.36-21.79-48.14-50.9-68.51-79.81c-4.84-6.87-9.65-13.82-14.38-20.76c-12.17-17.93-23.87-36.42-29.52-56.58
		c-2.98-10.63-4.29-21.54-3.96-33c0.36-12.2,2.71-24.28,3.36-36.45c1.66-30.95-5.4-61.82-6.22-92.92
		c-0.68-25.95,2.81-51.57,6.65-76.93c1.9-12.73,3.99-25.66,9.4-37.01C169.02,310.5,210.28,301.97,245.56,279.54z"/>
	
		<linearGradient id="SVGID_00000038380377412432028740000018252047370944633016_" gradientUnits="userSpaceOnUse" x1="-5286.2549" y1="-1844.5892" x2="-3601.1101" y2="-1844.5892" gradientTransform="matrix(8.268168e-03 -0.5476 0.5476 8.268168e-03 1583.5092 -1895.9735)">
		<stop  offset="0" style="stop-color:#FFFFFF"/>
		<stop  offset="0.0137" style="stop-color:#F9F9F9;stop-opacity:0.9911"/>
		<stop  offset="0.1253" style="stop-color:#CFCFCF;stop-opacity:0.9189"/>
		<stop  offset="0.2429" style="stop-color:#ABABAB;stop-opacity:0.8428"/>
		<stop  offset="0.3656" style="stop-color:#8E8E8E;stop-opacity:0.7634"/>
		<stop  offset="0.4952" style="stop-color:#777777;stop-opacity:0.6795"/>
		<stop  offset="0.6348" style="stop-color:#676767;stop-opacity:0.5893"/>
		<stop  offset="0.7913" style="stop-color:#5D5D5D;stop-opacity:0.488"/>
		<stop  offset="1" style="stop-color:#5A5A5A;stop-opacity:0.3529"/>
	</linearGradient>
	
		<path style="opacity:0.6471;fill:none;stroke:url(#SVGID_00000038380377412432028740000018252047370944633016_);stroke-miterlimit:10;" d="
		M236.77,283.14c50.83-33.91,85.15-89.47,129.36-132.84c24.86-24.38,53.19-45.5,83.7-62.54c8.38-4.68,16.93-9.07,25.63-13.13
		c14.7-6.85,30.26-12.8,45.98-13.69c14.94-0.85,28.89,3.05,42.82,6.66c35.21,9.11,71.27,20.76,107.03,35
		c23.3,9.31,46.59,19.37,69.43,29.91c12.66,5.84,25.43,11.91,36.79,20.3c12.06,8.9,21.83,20.06,32.81,30.18
		c36.4,33.55,64.68,62.18,78.75,103.37c6.25,18.09,9.35,38,11.81,58.99c0.36,3.09,0.75,6.17,1.16,9.24
		c4.68,34.81,12.92,68.83,20.92,102.94c6.33,26.98,12.84,54.05,15,81.69c1.88,24.12-0.03,48.98-5.74,72.37
		c-3.11,12.77-7.48,25.15-13.73,36.71c-12.43,23.07-30.24,41.27-48.86,59.22c-40.26,38.78-74.36,84.7-109.17,127.44
		c-26.71,32.61-53.95,62.33-83.73,91.95c-15.88,15.87-32.45,31.66-50.92,45.55c-8.38,6.3-18.29,12.63-28.42,11.87
		c-5.75-0.44-10.53-3.41-14.91-6.34c-34.14-22.81-57.61-57.04-93.47-83.51c-67.43-49.8-165.89-57.97-232.48-113.08
		c-27.24-22.54-47.45-52.59-68.05-81.84c-4.9-6.96-9.81-13.95-14.7-20.91c-12.56-17.92-25.08-36.24-31.42-56.34
		c-3.36-10.64-4.99-21.62-4.74-33.24c0.28-12.35,2.86-24.56,3.61-36.87c1.84-30.07-4.88-60.12-5.95-90.38
		c-0.88-25.23,1.98-50.15,5.26-74.82c1.62-12.4,3.44-24.97,8.36-36.09C164.51,315.72,202.79,305.8,236.77,283.14z"/>
	
		<linearGradient id="SVGID_00000111900622150397976930000003348675052692926885_" gradientUnits="userSpaceOnUse" x1="-5540.1787" y1="-903.7997" x2="-3804.6858" y2="-903.7997" gradientTransform="matrix(0.0984 -0.4978 0.4978 0.0984 1439.5537 -1723.6123)">
		<stop  offset="0" style="stop-color:#FFFFFF"/>
		<stop  offset="0.0937" style="stop-color:#DEDEDE;stop-opacity:0.9449"/>
		<stop  offset="0.2141" style="stop-color:#BABABA;stop-opacity:0.874"/>
		<stop  offset="0.3416" style="stop-color:#9D9D9D;stop-opacity:0.7991"/>
		<stop  offset="0.4761" style="stop-color:#868686;stop-opacity:0.7199"/>
		<stop  offset="0.6209" style="stop-color:#767676;stop-opacity:0.6348"/>
		<stop  offset="0.7833" style="stop-color:#6C6C6C;stop-opacity:0.5392"/>
		<stop  offset="1" style="stop-color:#696969;stop-opacity:0.4118"/>
	</linearGradient>
	
		<path style="opacity:0.5882;fill:none;stroke:url(#SVGID_00000111900622150397976930000003348675052692926885_);stroke-miterlimit:10;" d="
		M227.97,286.74c49.9-34.94,85.14-89.32,129.83-132c25.13-24,53.53-44.88,83.97-61.89c8.36-4.67,16.88-9.08,25.55-13.17
		c14.64-6.9,30.09-12.94,45.72-14.29c14.85-1.29,28.84,1.87,42.83,4.78c35.98,7.47,72.82,18.06,109.39,31.59
		c23.8,8.84,47.59,18.56,70.92,28.74c12.94,5.64,26.03,11.52,37.5,20.06c12.18,9.06,21.74,20.69,32.75,31.06
		c35.4,33.35,65.16,60.54,79.87,101.1c6.55,17.86,9.72,37.62,12.22,58.35c0.37,3.06,0.76,6.11,1.17,9.15
		c4.68,34.51,12.59,68.29,20.3,102.16c6.09,26.79,12.39,53.68,14.22,81.09c1.64,24.67-0.89,49.94-6.88,73.84
		c-3.25,13.02-7.66,25.68-13.82,37.59c-12.27,23.79-29.48,43.17-48.02,61.97c-38.67,39.22-73.02,84.25-108.7,124.97
		c-27.41,31.09-55.68,58.56-85.97,86.76c-16.13,15.09-32.8,30.33-51.23,43.75c-8.36,6.09-18.12,12.23-28.11,11.79
		c-5.57-0.24-10.27-2.84-14.61-5.39c-33.81-19.86-58.11-50.75-93.6-75.19c-66.73-45.97-161.67-55.95-225.27-110.66
		c-27.11-23.32-46.76-54.28-67.59-83.87c-4.96-7.05-9.96-14.09-15.02-21.05c-12.95-17.91-26.3-36.05-33.32-56.09
		c-3.73-10.65-5.69-21.69-5.51-33.48c0.2-12.5,3-24.83,3.85-37.28c2-29.2-4.36-58.42-5.68-87.83c-1.08-24.5,1.15-48.73,3.87-72.7
		c1.34-12.07,2.9-24.29,7.32-35.18C159.99,320.94,195.29,309.62,227.97,286.74z"/>
	
		<linearGradient id="SVGID_00000111911884264401287130000016677911605384032384_" gradientUnits="userSpaceOnUse" x1="-5339.3457" y1="178.1198" x2="-3634.2429" y2="178.1198" gradientTransform="matrix(0.1886 -0.4481 0.4481 0.1886 1295.5984 -1551.2511)">
		<stop  offset="0" style="stop-color:#FFFFFF"/>
		<stop  offset="0.0556" style="stop-color:#EDEDED;stop-opacity:0.9706"/>
		<stop  offset="0.1811" style="stop-color:#C9C9C9;stop-opacity:0.9041"/>
		<stop  offset="0.3139" style="stop-color:#ACACAC;stop-opacity:0.8338"/>
		<stop  offset="0.4541" style="stop-color:#959595;stop-opacity:0.7596"/>
		<stop  offset="0.605" style="stop-color:#858585;stop-opacity:0.6797"/>
		<stop  offset="0.7742" style="stop-color:#7B7B7B;stop-opacity:0.5901"/>
		<stop  offset="1" style="stop-color:#787878;stop-opacity:0.4706"/>
	</linearGradient>
	
		<path style="opacity:0.5294;fill:none;stroke:url(#SVGID_00000111911884264401287130000016677911605384032384_);stroke-miterlimit:10;" d="
		M219.18,290.34c48.95-35.99,85.13-89.17,130.31-131.16c25.41-23.62,53.87-44.25,84.24-61.25c8.35-4.67,16.84-9.09,25.48-13.21
		c14.59-6.95,29.92-13.08,45.46-14.89c14.77-1.73,28.79,0.68,42.85,2.9c36.76,5.81,74.37,15.36,111.74,28.18
		c24.31,8.37,48.59,17.75,72.41,27.57c13.22,5.44,26.62,11.13,38.21,19.82c12.3,9.22,21.66,21.32,32.69,31.94
		c34.41,33.14,65.63,58.89,80.99,98.83c6.85,17.63,10.08,37.23,12.62,57.71c0.38,3.03,0.77,6.06,1.18,9.07
		c4.68,34.2,12.27,67.75,19.67,101.37c5.85,26.6,11.93,53.31,13.43,80.5c1.39,25.22-1.76,50.9-8.01,75.3
		c-3.39,13.27-7.84,26.22-13.91,38.47c-12.1,24.51-28.74,45.05-47.18,64.72c-37.13,39.61-71.68,83.8-108.23,122.5
		c-28.12,29.57-57.4,54.8-88.2,81.56c-16.38,14.31-33.14,28.99-51.54,41.95c-8.34,5.88-17.95,11.81-27.79,11.71
		c-5.4-0.05-10.02-2.28-14.31-4.45c-33.49-16.9-58.61-44.47-93.73-66.87c-66.04-42.14-157.41-53.99-218.06-108.24
		c-26.96-24.12-46.06-55.96-67.13-85.9c-5.02-7.13-10.12-14.23-15.33-21.2c-13.33-17.91-27.52-35.87-35.22-55.85
		c-4.11-10.66-6.39-21.76-6.29-33.72c0.12-12.64,3.14-25.1,4.1-37.69c2.15-28.32-3.84-56.72-5.4-85.28
		c-1.28-23.78,0.31-47.3,2.48-70.59c1.06-11.73,2.35-23.6,6.28-34.26C155.47,326.16,187.78,313.42,219.18,290.34z"/>
	
		<linearGradient id="SVGID_00000072249371487649205810000011909559108884374951_" gradientUnits="userSpaceOnUse" x1="-4703.3442" y1="1156.328" x2="-3024.2197" y2="1156.328" gradientTransform="matrix(0.2787 -0.3983 0.3983 0.2787 1151.6429 -1378.8898)">
		<stop  offset="0" style="stop-color:#FFFFFF"/>
		<stop  offset="0.0112" style="stop-color:#FCFCFC;stop-opacity:0.9947"/>
		<stop  offset="0.1426" style="stop-color:#D8D8D8;stop-opacity:0.9329"/>
		<stop  offset="0.2816" style="stop-color:#BBBBBB;stop-opacity:0.8675"/>
		<stop  offset="0.4284" style="stop-color:#A4A4A4;stop-opacity:0.7984"/>
		<stop  offset="0.5863" style="stop-color:#949494;stop-opacity:0.7241"/>
		<stop  offset="0.7636" style="stop-color:#8A8A8A;stop-opacity:0.6407"/>
		<stop  offset="1" style="stop-color:#878787;stop-opacity:0.5294"/>
	</linearGradient>
	
		<path style="opacity:0.4706;fill:none;stroke:url(#SVGID_00000072249371487649205810000011909559108884374951_);stroke-miterlimit:10;" d="
		M210.38,293.94c47.99-37.07,85.12-89.01,130.78-130.33c25.68-23.23,54.21-43.63,84.51-60.6c8.33-4.66,16.8-9.1,25.4-13.25
		c14.53-7,29.76-13.22,45.2-15.5c14.68-2.17,28.75-0.53,42.87,1.02c37.54,4.12,75.93,12.66,114.09,24.78
		c24.81,7.91,49.59,16.95,73.9,26.4c13.49,5.24,27.21,10.75,38.92,19.58c12.42,9.38,21.57,21.94,32.62,32.82
		c33.43,32.92,66.11,57.25,82.11,96.56c7.16,17.4,10.45,36.85,13.02,57.07c0.38,3,0.78,6,1.19,8.99
		c4.68,33.89,11.95,67.2,19.05,100.58c5.62,26.41,11.46,52.94,12.64,79.9c1.12,25.77-2.62,51.86-9.14,76.76
		c-3.53,13.52-8.02,26.75-14,39.35c-11.94,25.23-28.02,46.91-46.34,67.48c-35.61,39.97-70.34,83.35-107.76,120.03
		c-28.82,28.06-59.13,51.04-90.43,76.37c-16.64,13.53-33.49,27.66-51.84,40.15c-8.33,5.66-17.78,11.39-27.48,11.64
		c-5.22,0.13-9.76-1.71-14.02-3.5c-33.16-13.95-59.11-38.19-93.86-58.55c-65.34-38.31-153.1-52.08-210.85-105.82
		c-26.8-24.94-45.37-57.65-66.66-87.92c-5.08-7.22-10.28-14.36-15.65-21.35c-13.72-17.9-28.74-35.69-37.12-55.61
		c-4.49-10.67-7.09-21.83-7.07-33.96c0.04-12.79,3.28-25.37,4.34-38.11c2.3-27.45-3.32-55.02-5.13-82.74
		c-1.48-23.05-0.52-45.88,1.09-68.47c0.79-11.4,1.8-22.92,5.25-33.35C150.96,331.38,180.26,317.21,210.38,293.94z"/>
	
		<linearGradient id="SVGID_00000064338890983977594850000015244676109470468510_" gradientUnits="userSpaceOnUse" x1="-3766.479" y1="1803.7593" x2="-2169.6833" y2="1803.7593" gradientTransform="matrix(0.3689 -0.3485 0.3485 0.3689 1007.6876 -1206.5286)">
		<stop  offset="0" style="stop-color:#FFFFFF"/>
		<stop  offset="0.0981" style="stop-color:#E7E7E7;stop-opacity:0.9596"/>
		<stop  offset="0.2432" style="stop-color:#C9C9C9;stop-opacity:0.8999"/>
		<stop  offset="0.3977" style="stop-color:#B3B3B3;stop-opacity:0.8362"/>
		<stop  offset="0.5642" style="stop-color:#A3A3A3;stop-opacity:0.7677"/>
		<stop  offset="0.7509" style="stop-color:#999999;stop-opacity:0.6908"/>
		<stop  offset="1" style="stop-color:#969696;stop-opacity:0.5882"/>
	</linearGradient>
	
		<path style="opacity:0.4118;fill:none;stroke:url(#SVGID_00000064338890983977594850000015244676109470468510_);stroke-miterlimit:10;" d="
		M201.59,297.54c47.01-38.18,85.12-88.86,131.25-129.49c25.95-22.85,54.54-43,84.79-59.95c8.31-4.66,16.76-9.11,25.33-13.29
		c14.48-7.05,29.59-13.36,44.94-16.1c14.6-2.61,28.7-1.74,42.89-0.86c38.33,2.4,77.48,9.95,116.45,21.37
		c25.32,7.44,50.59,16.14,75.4,25.23c13.77,5.04,27.81,10.36,39.63,19.34c12.55,9.53,21.5,22.56,32.56,33.7
		c32.46,32.69,66.58,55.6,83.23,94.29c7.46,17.17,10.81,36.47,13.42,56.42c0.39,2.98,0.79,5.95,1.2,8.91
		c4.68,33.58,11.63,66.66,18.43,99.8c5.38,26.22,10.99,52.57,11.85,79.3c0.85,26.32-3.48,52.82-10.27,78.22
		c-3.67,13.77-8.2,27.29-14.09,40.23c-11.77,25.95-27.31,48.75-45.5,70.23c-34.13,40.3-68.99,82.9-107.29,117.56
		c-29.52,26.54-60.86,47.28-92.66,71.17c-16.89,12.75-33.84,26.33-52.15,38.35c-8.31,5.45-17.6,10.97-27.16,11.56
		c-5.04,0.31-9.51-1.14-13.72-2.55c-32.83-11-59.61-31.9-93.99-50.23c-64.64-34.48-148.74-50.23-203.65-103.4
		c-26.62-25.78-44.68-59.34-66.2-89.95c-5.13-7.3-10.43-14.5-15.96-21.5c-14.1-17.9-29.96-35.5-39.02-55.37
		c-4.87-10.68-7.79-21.91-7.84-34.2c-0.04-12.94,3.41-25.65,4.58-38.52c2.43-26.57-2.8-53.32-4.86-80.19
		c-1.69-22.32-1.35-44.46-0.29-66.36c0.51-11.07,1.26-22.23,4.21-32.43C146.44,336.59,172.73,320.97,201.59,297.54z"/>
	
		<linearGradient id="SVGID_00000052784799509418219790000014644843003319564178_" gradientUnits="userSpaceOnUse" x1="-2755.4045" y1="2013.6434" x2="-1276.3252" y2="2013.6434" gradientTransform="matrix(0.4591 -0.2987 0.2987 0.4591 863.7322 -1034.1674)">
		<stop  offset="0" style="stop-color:#FFFFFF"/>
		<stop  offset="0.0421" style="stop-color:#F6F6F6;stop-opacity:0.9851"/>
		<stop  offset="0.1962" style="stop-color:#D8D8D8;stop-opacity:0.9307"/>
		<stop  offset="0.3604" style="stop-color:#C2C2C2;stop-opacity:0.8728"/>
		<stop  offset="0.5372" style="stop-color:#B2B2B2;stop-opacity:0.8104"/>
		<stop  offset="0.7355" style="stop-color:#A8A8A8;stop-opacity:0.7404"/>
		<stop  offset="1" style="stop-color:#A5A5A5;stop-opacity:0.6471"/>
	</linearGradient>
	
		<path style="opacity:0.3529;fill:none;stroke:url(#SVGID_00000052784799509418219790000014644843003319564178_);stroke-miterlimit:10;" d="
		M192.79,301.14c46.01-39.31,85.11-88.71,131.73-128.65c26.23-22.47,54.88-42.38,85.06-59.31c8.3-4.65,16.71-9.12,25.26-13.33
		c14.42-7.11,29.43-13.5,44.68-16.7c14.51-3.05,28.66-2.35,42.9-2.74c39.1-1.05,79.04,7.25,118.8,17.96
		c25.82,6.98,51.59,15.33,76.89,24.06c14.05,4.84,28.4,9.97,40.34,19.1c12.67,9.69,21.42,23.17,32.49,34.58
		c31.5,32.45,67.06,53.96,84.35,92.02c7.76,16.94,11.18,36.08,13.82,55.78c0.4,2.95,0.8,5.89,1.21,8.82
		c4.68,33.27,11.3,66.12,17.8,99.01c5.14,26.03,10.5,52.2,11.06,78.7c0.57,26.87-4.35,53.78-11.4,79.69
		c-3.81,14.02-8.38,27.82-14.18,41.1c-11.61,26.67-26.63,50.58-44.66,72.98c-32.69,40.61-67.65,82.45-106.82,115.09
		c-30.23,25.02-62.59,43.52-94.9,65.97c-17.14,11.98-34.19,25-52.45,36.55c-8.29,5.24-17.43,10.54-26.85,11.49
		c-4.87,0.49-9.25-0.57-13.42-1.6c-32.51-8.04-60.11-25.62-94.12-41.91c-63.94-30.65-144.34-48.42-196.44-100.98
		c-26.41-26.65-43.98-61.03-65.74-91.98c-5.19-7.39-10.59-14.64-16.28-21.65c-14.49-17.89-31.18-35.31-40.92-55.13
		c-5.25-10.69-8.49-21.98-8.62-34.44c-0.12-13.09,3.53-25.92,4.83-38.93c2.56-25.7-2.29-51.62-4.58-77.65
		c-1.89-21.6-2.19-43.04-1.68-64.24c0.23-10.74,0.71-21.54,3.17-31.51C141.92,341.81,165.19,324.72,192.79,301.14z"/>
	
		<linearGradient id="SVGID_00000049212137254409209380000014254604508143051413_" gradientUnits="userSpaceOnUse" x1="-1889.6505" y1="1925.0652" x2="-539.7899" y2="1925.0652" gradientTransform="matrix(0.5492 -0.2489 0.2489 0.5492 719.7769 -861.8062)">
		<stop  offset="0" style="stop-color:#FFFFFF"/>
		<stop  offset="0.1379" style="stop-color:#E7E7E7;stop-opacity:0.9594"/>
		<stop  offset="0.3131" style="stop-color:#D1D1D1;stop-opacity:0.9079"/>
		<stop  offset="0.5029" style="stop-color:#C1C1C1;stop-opacity:0.8521"/>
		<stop  offset="0.7159" style="stop-color:#B7B7B7;stop-opacity:0.7894"/>
		<stop  offset="1" style="stop-color:#B4B4B4;stop-opacity:0.7059"/>
	</linearGradient>
	
		<path style="opacity:0.2941;fill:none;stroke:url(#SVGID_00000049212137254409209380000014254604508143051413_);stroke-miterlimit:10;" d="
		M184,304.74c44.98-40.47,85.1-88.56,132.2-127.81c26.5-22.08,55.22-41.76,85.33-58.66c8.28-4.65,16.67-9.13,25.18-13.37
		c14.37-7.16,29.26-13.64,44.42-17.3c14.42-3.49,28.61-4.21,42.92-4.61c39.88-1.13,80.59,4.55,121.15,14.55
		c26.33,6.51,52.59,14.52,78.38,22.89c14.33,4.64,29,9.58,41.05,18.86c12.79,9.85,21.35,23.78,32.43,35.46
		c30.55,32.2,67.53,52.32,85.47,89.75c8.07,16.7,11.54,35.7,14.22,55.14c0.4,2.92,0.81,5.84,1.22,8.74
		c4.68,32.97,10.98,65.57,17.18,98.22c4.9,25.84,10,51.83,10.27,78.11c0.28,27.42-5.21,54.74-12.53,81.15
		c-3.95,14.27-8.56,28.36-14.27,41.98c-11.44,27.39-25.97,52.4-43.82,75.74c-31.29,40.9-66.31,82-106.35,112.62
		c-30.93,23.51-64.31,39.76-97.13,60.78c-17.39,11.2-34.53,23.66-52.76,34.75c-8.28,5.03-17.26,10.09-26.53,11.41
		c-4.69,0.67-9,0-13.13-0.66c-32.18-5.09-60.61-19.33-94.25-33.59c-63.24-26.82-139.89-46.65-189.23-98.57
		c-26.17-27.54-43.29-62.72-65.28-94.01c-5.25-7.47-10.74-14.78-16.6-21.79c-14.88-17.89-32.41-35.12-42.82-54.88
		c-5.63-10.7-9.2-22.05-9.4-34.68c-0.2-13.24,3.66-26.19,5.07-39.35c2.67-24.83-1.77-49.92-4.31-75.1
		c-2.09-20.87-3.02-41.62-3.07-62.13c-0.05-10.4,0.16-20.86,2.13-30.6C137.41,347.03,157.63,328.46,184,304.74z"/>
	
		<linearGradient id="SVGID_00000057844013315026389210000003644758919793506469_" gradientUnits="userSpaceOnUse" x1="-1205.2494" y1="1670.0564" x2="-0.1728" y2="1670.0564" gradientTransform="matrix(0.6394 -0.1991 0.1991 0.6394 575.8215 -689.4449)">
		<stop  offset="0" style="stop-color:#FFFFFF"/>
		<stop  offset="0.0593" style="stop-color:#F6F6F6;stop-opacity:0.986"/>
		<stop  offset="0.2506" style="stop-color:#E0E0E0;stop-opacity:0.941"/>
		<stop  offset="0.4577" style="stop-color:#D0D0D0;stop-opacity:0.8923"/>
		<stop  offset="0.69" style="stop-color:#C6C6C6;stop-opacity:0.8376"/>
		<stop  offset="1" style="stop-color:#C3C3C3;stop-opacity:0.7647"/>
	</linearGradient>
	
		<path style="opacity:0.2353;fill:none;stroke:url(#SVGID_00000057844013315026389210000003644758919793506469_);stroke-miterlimit:10;" d="
		M175.2,308.34c43.92-41.65,85.09-88.4,132.67-126.97c26.77-21.7,55.56-41.13,85.6-58.01c8.26-4.64,16.63-9.14,25.11-13.41
		c14.31-7.21,29.09-13.78,44.16-17.9c14.34-3.93,28.56-5.45,42.94-6.49c40.65-2.94,82.14,1.85,123.51,11.14
		c26.83,6.05,53.59,13.71,79.87,21.72c14.6,4.44,29.59,9.19,41.76,18.63c12.91,10.01,21.29,24.39,32.37,36.34
		c29.62,31.93,68.01,50.67,86.59,87.49c8.37,16.47,11.91,35.31,14.62,54.5c0.41,2.89,0.82,5.78,1.23,8.66
		c4.68,32.66,10.66,65.03,16.55,97.43c4.66,25.65,9.5,51.46,9.48,77.51c-0.02,27.97-6.08,55.7-13.67,82.61
		c-4.09,14.52-8.74,28.89-14.36,42.86c-11.28,28.11-25.33,54.2-42.98,78.49c-29.91,41.17-64.97,81.55-105.87,110.15
		c-31.63,21.99-66.04,36-99.36,55.58c-17.65,10.42-34.88,22.33-53.07,32.95c-8.26,4.82-17.09,9.65-26.22,11.33
		c-4.52,0.84-8.75,0.57-12.83,0.29c-31.86-2.14-61.1-13.05-94.38-25.27c-62.54-22.99-135.39-44.91-182.02-96.15
		c-25.9-28.46-42.6-64.4-64.82-96.03c-5.31-7.56-10.9-14.91-16.91-21.94c-15.26-17.88-33.64-34.93-44.72-54.64
		c-6.02-10.7-9.9-22.13-10.18-34.92c-0.28-13.39,3.77-26.47,5.32-39.76c2.78-23.95-1.25-48.22-4.04-72.56
		c-2.29-20.15-3.85-40.2-4.46-60.01c-0.33-10.07-0.38-20.17,1.1-29.68C132.89,352.25,150.05,332.19,175.2,308.34z"/>
	
		<linearGradient id="SVGID_00000021822239650381722900000016467190054846921124_" gradientUnits="userSpaceOnUse" x1="-696.4316" y1="1355.9778" x2="370.5522" y2="1355.9778" gradientTransform="matrix(0.7295 -0.1494 0.1494 0.7295 431.8661 -517.0837)">
		<stop  offset="0" style="stop-color:#FFFFFF"/>
		<stop  offset="0.1621" style="stop-color:#EFEFEF;stop-opacity:0.9714"/>
		<stop  offset="0.3931" style="stop-color:#DFDFDF;stop-opacity:0.9306"/>
		<stop  offset="0.6531" style="stop-color:#D5D5D5;stop-opacity:0.8847"/>
		<stop  offset="1" style="stop-color:#D2D2D2;stop-opacity:0.8235"/>
	</linearGradient>
	
		<path style="opacity:0.1765;fill:none;stroke:url(#SVGID_00000021822239650381722900000016467190054846921124_);stroke-miterlimit:10;" d="
		M166.41,311.94c42.83-42.86,85.09-88.25,133.15-126.13c27.05-21.32,55.9-40.51,85.87-57.37c8.25-4.64,16.59-9.15,25.03-13.45
		c14.25-7.26,28.93-13.92,43.89-18.51c14.25-4.37,28.5-6.7,42.95-8.37c41.4-4.77,83.7-0.85,125.86,7.73
		c27.34,5.58,54.6,12.9,81.36,20.55c14.88,4.24,30.19,8.8,42.47,18.39c13.03,10.17,21.22,24.99,32.3,37.22
		c28.69,31.67,68.49,49.03,87.71,85.22c8.68,16.24,12.27,34.93,15.02,53.86c0.42,2.86,0.83,5.72,1.24,8.57
		c4.68,32.35,10.34,64.49,15.93,96.65c4.42,25.46,8.99,51.09,8.7,76.91c-0.33,28.52-6.94,56.66-14.8,84.08
		c-4.23,14.77-8.92,29.43-14.45,43.74c-11.11,28.83-24.72,55.99-42.14,81.24c-28.58,41.43-63.63,81.1-105.4,107.68
		c-32.34,20.48-67.77,32.24-101.59,50.38c-17.9,9.64-35.23,21-53.37,31.15c-8.24,4.61-16.92,9.19-25.9,11.26
		c-4.35,1-8.49,1.14-12.54,1.24c-31.53,0.82-61.6-6.77-94.51-16.95c-61.84-19.16-130.84-43.21-174.81-93.73
		c-25.59-29.4-41.9-66.09-64.36-98.06c-5.37-7.64-11.06-15.05-17.23-22.09c-15.65-17.88-34.91-34.72-46.62-54.4
		c-6.42-10.7-10.6-22.2-10.95-35.16c-0.36-13.54,3.88-26.74,5.56-40.18c2.88-23.08-0.73-46.52-3.76-70.01
		c-2.5-19.42-4.69-38.77-5.85-57.89c-0.61-9.74-0.93-19.48,0.06-28.77C128.37,357.47,142.46,335.9,166.41,311.94z"/>
	
		<linearGradient id="SVGID_00000132805406491493369090000017577860216545850285_" gradientUnits="userSpaceOnUse" x1="-328.3083" y1="1039.1755" x2="622.8022" y2="1039.1755" gradientTransform="matrix(0.8197 -0.0996 0.0996 0.8197 287.9107 -344.7224)">
		<stop  offset="0" style="stop-color:#FFFFFF"/>
		<stop  offset="0.0185" style="stop-color:#FEFEFE;stop-opacity:0.9978"/>
		<stop  offset="0.2892" style="stop-color:#EEEEEE;stop-opacity:0.966"/>
		<stop  offset="0.5935" style="stop-color:#E4E4E4;stop-opacity:0.9302"/>
		<stop  offset="1" style="stop-color:#E1E1E1;stop-opacity:0.8824"/>
	</linearGradient>
	
		<path style="opacity:0.1176;fill:none;stroke:url(#SVGID_00000132805406491493369090000017577860216545850285_);stroke-miterlimit:10;" d="
		M157.61,315.54c41.7-44.09,85.08-88.1,133.62-125.3c27.32-20.93,56.24-39.88,86.14-56.72c8.23-4.63,16.54-9.16,24.96-13.49
		c14.2-7.31,28.76-14.06,43.63-19.11c14.16-4.81,28.44-7.96,42.97-10.25c42.13-6.63,85.25-3.55,128.21,4.32
		c27.84,5.12,55.6,12.1,82.86,19.37c15.16,4.04,30.78,8.41,43.18,18.15c13.16,10.33,21.17,25.59,32.24,38.09
		c27.78,31.39,68.96,47.38,88.83,82.95c8.98,16.01,12.64,34.54,15.42,53.21c0.42,2.84,0.84,5.67,1.25,8.49
		c4.68,32.04,10.01,63.94,15.3,95.86c4.19,25.27,8.48,50.72,7.91,76.32c-0.65,29.07-7.8,57.63-15.93,85.54
		c-4.37,15.02-9.1,29.96-14.54,44.62c-10.95,29.55-24.13,57.77-41.3,84c-27.27,41.68-62.28,80.65-104.93,105.21
		c-33.04,18.96-69.5,28.48-103.83,45.19c-18.15,8.86-35.57,19.67-53.68,29.35c-8.23,4.4-16.76,8.72-25.59,11.18
		c-4.18,1.17-8.24,1.7-12.24,2.19c-31.2,3.77-62.1-0.48-94.64-8.63c-61.15-15.32-126.24-41.53-167.61-91.31
		c-25.24-30.37-41.21-67.78-63.89-100.09c-5.42-7.73-11.21-15.19-17.54-22.24c-16.03-17.87-36.12-34.53-48.52-54.16
		c-6.8-10.71-11.3-22.27-11.73-35.4c-0.44-13.69,3.99-27.02,5.8-40.59c2.98-22.22-0.21-44.82-3.49-67.46
		c-2.7-18.7-5.52-37.35-7.23-55.78c-0.89-9.41-1.47-18.8-0.98-27.85C123.86,362.69,134.85,339.6,157.61,315.54z"/>
	
		<linearGradient id="SVGID_00000150821908805222146840000010060409265577747858_" gradientUnits="userSpaceOnUse" x1="-64.2055" y1="746.5453" x2="791.0905" y2="746.5453" gradientTransform="matrix(0.9098 -0.0498 0.0498 0.9098 143.9554 -172.3612)">
		<stop  offset="0" style="stop-color:#FFFFFF"/>
		<stop  offset="0.068" style="stop-color:#FDFDFD;stop-opacity:0.996"/>
		<stop  offset="0.467" style="stop-color:#F3F3F3;stop-opacity:0.9725"/>
		<stop  offset="1" style="stop-color:#F0F0F0;stop-opacity:0.9412"/>
	</linearGradient>
	
		<path style="opacity:0.0588;fill:none;stroke:url(#SVGID_00000150821908805222146840000010060409265577747858_);stroke-miterlimit:10;" d="
		M148.82,319.14c40.53-45.34,85.07-87.95,134.09-124.46c27.59-20.55,56.58-39.26,86.41-56.07c8.21-4.63,16.5-9.17,24.88-13.53
		c14.14-7.36,28.59-14.2,43.37-19.71c14.08-5.25,28.37-9.23,42.99-12.13c42.85-8.5,86.8-6.26,130.56,0.92
		c28.35,4.65,56.6,11.29,84.35,18.2c15.44,3.85,31.37,8.03,43.89,17.91c13.28,10.48,21.12,26.18,32.18,38.97
		c26.88,31.11,69.44,45.74,89.95,80.68c9.28,15.78,13,34.16,15.83,52.57c0.43,2.81,0.84,5.61,1.26,8.41
		c4.68,31.74,9.69,63.4,14.68,95.07c3.95,25.08,7.96,50.35,7.12,75.72c-0.98,29.61-8.67,58.59-17.06,87
		c-4.51,15.27-9.28,30.5-14.63,45.5c-10.78,30.27-23.58,59.54-40.46,86.75c-26,41.92-60.94,80.2-104.46,102.74
		c-33.75,17.44-71.22,24.72-106.06,39.99c-18.4,8.08-35.92,18.33-53.99,27.55c-8.21,4.19-16.61,8.24-25.28,11.11
		c-4.01,1.32-7.98,2.27-11.94,3.14c-30.88,6.72-62.6,5.8-94.77-0.31c-60.45-11.49-121.58-39.87-160.4-88.89
		c-24.84-31.37-40.52-69.47-63.43-102.12c-5.48-7.81-11.37-15.33-17.86-22.38c-16.42-17.87-37.34-34.34-50.42-53.92
		c-7.18-10.71-12-22.34-12.51-35.64c-0.53-13.84,4.08-27.3,6.05-41c3.06-21.35,0.31-43.12-3.22-64.92
		c-2.9-17.97-6.35-35.93-8.62-53.66c-1.17-9.07-2.02-18.11-2.01-26.93C119.34,367.9,127.22,343.29,148.82,319.14z"/>
	<path class="st17" d="M361.27,143.69c35.2-19.86,71.62-38.51,110.93-47.89c71.76-17.12,146.9-2.14,218.76,14.54
		c15.71,3.65,31.97,7.64,44.6,17.67c13.4,10.64,21.08,26.77,32.11,39.85c25.99,30.82,69.91,44.09,91.07,78.41
		c11.05,17.93,14.39,39.42,17.49,60.25c4.68,31.43,9.37,62.86,14.05,94.29c3.71,24.9,7.43,49.98,6.33,75.12
		c-1.32,30.16-9.53,59.55-18.19,88.46c-14.03,46.85-29.57,93.71-54.33,135.89c-24.76,42.17-59.6,79.75-103.99,100.27
		c-34.45,15.93-72.95,20.96-108.29,34.79c-27.13,10.62-52.07,26.31-79.25,36.78c-90.19,34.75-201.61,2.84-259.73-74.38
		c-30.22-40.15-46.7-90.08-81.14-126.68c-26.04-27.67-63.96-51.59-65.6-89.55c-0.61-13.99,4.17-27.58,6.29-41.42
		c11.24-73.23-47.33-152.14,7.67-217.36C201.47,249.87,278.63,190.31,361.27,143.69z"/>
</g>
</svg>
