<?xml version="1.0" encoding="utf-8"?>
<!-- Generator: Adobe Illustrator 27.3.1, SVG Export Plug-In . SVG Version: 6.00 Build 0)  -->
<svg version="1.1" id="Layer_1" xmlns="http://www.w3.org/2000/svg" xmlns:xlink="http://www.w3.org/1999/xlink" x="0px" y="0px"
	 viewBox="0 0 1080 1080" style="enable-background:new 0 0 1080 1080;" xml:space="preserve">
<style type="text/css">
	.st0{fill:#FFFFFF;}
</style>
<g>
	<rect x="496.22" y="627.57" class="st0" width="29.19" height="58.38"/>
	<path class="st0" d="M642.18,569.19c0,116.77-116.77,116.77-116.77,116.77v-58.38c0,0,58.39,0,58.39-58.39L642.18,569.19z"/>
	<rect x="437.84" y="569.19" class="st0" width="58.38" height="58.38"/>
	<rect x="437.82" y="540" class="st0" width="58.39" height="29.18"/>
	<rect x="437.82" y="481.61" class="st0" width="58.39" height="29.21"/>
	<rect x="437.82" y="394.04" class="st0" width="58.39" height="58.39"/>
	<path class="st0" d="M525.42,394.04v58.39c-0.03,0-0.03,0-0.03,0h-29.18v-58.39H525.42z"/>
	<path class="st0" d="M642.18,569.19l-58.38,0c0-58.38-58.39-58.38-58.39-58.38v-58.39C525.41,452.42,642.18,452.42,642.18,569.19z"
		/>
	<path class="st0" d="M558.9,569.19c0,33.49-33.49,33.49-33.49,33.49v-66.97C525.41,535.71,558.9,535.71,558.9,569.19z"/>
</g>
</svg>
