<?xml version="1.0" encoding="utf-8"?>
<!-- Generator: Adobe Illustrator 27.3.1, SVG Export Plug-In . SVG Version: 6.00 Build 0)  -->
<svg version="1.1" id="Layer_1" xmlns="http://www.w3.org/2000/svg" xmlns:xlink="http://www.w3.org/1999/xlink" x="0px" y="0px"
	 viewBox="0 0 1080 1080" style="enable-background:new 0 0 1080 1080;" xml:space="preserve">
<style type="text/css">
	.st0{fill:#FFFFFF;}
</style>
<g>
	<g>
		<rect x="153.23" y="627.57" class="st0" width="29.19" height="58.38"/>
		<path class="st0" d="M299.19,569.19c0,116.77-116.77,116.77-116.77,116.77l0-58.38c0,0,58.39,0,58.39-58.39L299.19,569.19z"/>
		<rect x="94.85" y="569.19" class="st0" width="58.38" height="58.38"/>
		<rect x="94.84" y="540" class="st0" width="58.39" height="29.18"/>
		<rect x="94.84" y="481.61" class="st0" width="58.39" height="29.21"/>
		<rect x="94.84" y="394.04" class="st0" width="58.39" height="58.39"/>
		<path class="st0" d="M182.43,394.04v58.39c-0.03,0-0.03,0-0.03,0h-29.18v-58.39H182.43z"/>
		<path class="st0" d="M299.19,569.19l-58.38,0c0-58.38-58.39-58.38-58.39-58.38l0-58.39C182.42,452.42,299.19,452.42,299.19,569.19
			z"/>
		<path class="st0" d="M215.91,569.19c0,33.49-33.49,33.49-33.49,33.49l0-66.97C182.42,535.71,215.91,535.71,215.91,569.19z"/>
	</g>
	<g>
		<path class="st0" d="M504.07,548.22c-2.78-4.1-6.67-7.2-11.67-9.32c-0.91-0.37-1.85-0.72-2.81-1.04c3.99-2.06,7.17-4.93,9.58-8.51
			c2.62-3.96,3.96-8.62,3.96-14.03c0-8.03-3.27-14.48-9.77-19.38c-6.51-4.9-16.22-7.34-29.15-7.34h-50.22v102.8h53.17
			c13.49,0,23.72-2.46,30.68-7.42c6.96-4.95,10.44-11.83,10.44-20.64C508.28,557.38,506.88,552.34,504.07,548.22z M479.42,570.47
			c-3.19,2.01-7.87,3.03-14.03,3.03h-27.76v-25.41h-1.77v-17.35h1.77v-24.23h23.64c5.78,0,10.2,1.02,13.31,3.03
			c3.08,2.01,4.6,5.01,4.6,9.02c0,4.12-1.53,7.17-4.6,9.18c-3.11,2.01-7.52,3-13.31,3h-23.64v17.35h27.76
			c6.16,0,10.84,1.04,14.03,3.16c3.19,2.09,4.77,5.3,4.77,9.61C484.18,565.27,482.6,568.46,479.42,570.47z"/>
		<path class="st0" d="M526.35,488.6v102.8h23.77V488.6H526.35z"/>
		<path class="st0" d="M562.92,488.6v19.38h32.88v83.42h23.8v-83.42h32.9V488.6H562.92z"/>
		<path class="st0" d="M665.27,488.6v102.8h23.8v-83.72h53.92V488.6H665.27z M687.3,534.86v19.09h49.37v-19.09H687.3z"/>
		<path class="st0" d="M782.93,572.02V488.6h-23.8v102.8h75.34v-19.38H782.93z"/>
		<path class="st0" d="M847.85,488.6v102.8h23.77V488.6H847.85z"/>
		<path class="st0" d="M979.73,505.92c-3.61-5.57-8.75-9.85-15.42-12.85c-6.67-2.97-14.59-4.47-23.8-4.47h-44.49v102.8h23.8v-28.35
			h20.69c9.21,0,17.13-1.47,23.8-4.47c6.67-3,11.81-7.28,15.42-12.85c3.61-5.6,5.43-12.18,5.43-19.84
			C985.16,518.16,983.34,511.52,979.73,505.92z M955.63,538.98c-3.61,3.13-9.1,4.69-16.44,4.69h-19.38v-35.69h19.38
			c7.34,0,12.82,1.58,16.44,4.71c3.64,3.13,5.43,7.52,5.43,13.2C961.07,531.49,959.27,535.85,955.63,538.98z"/>
	</g>
</g>
</svg>
