<?xml version="1.0" encoding="utf-8"?>
<!-- Generator: Adobe Illustrator 27.3.1, SVG Export Plug-In . SVG Version: 6.00 Build 0)  -->
<svg version="1.1" id="Layer_1" xmlns="http://www.w3.org/2000/svg" xmlns:xlink="http://www.w3.org/1999/xlink" x="0px" y="0px"
	 viewBox="0 0 479.17 436.6" style="enable-background:new 0 0 479.17 436.6;" xml:space="preserve">
<style type="text/css">
	.st0{fill:#444444;}
	.st1{fill:none;stroke:#FFFFFF;stroke-miterlimit:10;}
	.st2{fill:none;stroke:#FFFFFF;stroke-miterlimit:10;stroke-dasharray:11.8849,11.8849;}
	.st3{fill:#0092FF;}
</style>
<g>
	<g>
		<path class="st0" d="M406.6,39.67c-0.09,0.4-0.15,0.8-0.29,1.19l-31.7,89.32c-3.4,9.58-10.76,17.25-20.2,21.03
			c-9.44,3.79-20.06,3.33-29.14-1.24l-85.68-43.19c-0.07,2.85,0.42,5.75,1.55,8.56l30.34,75.65c7.83,19.53,30.01,29.01,49.54,21.18
			l99.63-39.96c19.53-7.83,29.01-30.01,21.18-49.54l-30.34-75.65C410.34,44.17,408.65,41.7,406.6,39.67z"/>
		<path class="st0" d="M333.79,132.99c4.26,2.15,9.05,2.35,13.47,0.58c4.43-1.78,7.75-5.23,9.34-9.73l31.7-89.32
			c0.11-0.32,0.28-0.6,0.42-0.89c-1.83,0.22-3.66,0.66-5.45,1.38L253.13,87.19c-1.76,0.7-3.35,1.63-4.81,2.71L333.79,132.99z"/>
	</g>
	<g>
		<g>
			<path class="st1" d="M5.41,425.55c1.95,0.45,3.9,0.87,5.86,1.27"/>
			<path class="st2" d="M22.98,428.91c75.19,11.44,155.39-12.98,210.84-65.21c14.62-13.77,28.08-30.37,31.31-50.19
				c3.22-19.82-7.24-42.96-26.69-47.93c-20.02-5.11-41.18,12.1-44.48,32.49s8.09,41.13,24.52,53.66s37.11,18.08,57.53,21.21
				c44.08,6.76,91.05,2.98,130.02-18.7c38.97-21.68,68.31-63.32,67.74-107.91c-0.43-33.96-17.86-66.32-42.79-89.39
				c-22.01-20.36-49.43-34.04-78.09-43.13"/>
			<path class="st1" d="M347.2,112.08c-1.92-0.57-3.84-1.11-5.77-1.64"/>
		</g>
	</g>
	<circle class="st3" cx="398.99" cy="30.56" r="25.63"/>
</g>
</svg>
